<?xml version="1.0" encoding="UTF-8"?>
<svg xmlns="http://www.w3.org/2000/svg" xmlns:xlink="http://www.w3.org/1999/xlink" width="px" height="px" viewBox="0 0 1440 810" version="1.1">
<defs>
<clipPath id="clip1">
  <path d="M 812 257 L 1276 257 L 1276 745.835938 L 812 745.835938 Z M 812 257 "/>
</clipPath>
</defs>
<g id="surface1">
<path style=" stroke:none;fill-rule:nonzero;fill:rgb(0%,58.039216%,100%);fill-opacity:1;" d="M -70.359375 391.792969 L -69.730469 392.691406 L -66.453125 390.40625 C -58.304688 384.722656 -49.878906 378.84375 -41.664062 372.410156 C -35.128906 367.652344 -28.4375 363.011719 -21.964844 358.527344 C -15.488281 354.035156 -8.792969 349.398438 -2.234375 344.625 C -0.753906 343.53125 0.710938 342.449219 2.175781 341.367188 C 9.308594 336.078125 16.050781 331.074219 23.261719 326.511719 L 23.34375 326.445312 C 25.457031 324.441406 27.945312 322.863281 30.359375 321.328125 C 33.261719 319.488281 36.257812 317.585938 38.617188 314.929688 C 45.738281 310.703125 52.351562 305.722656 59.34375 300.457031 C 61.632812 298.730469 64 296.949219 66.359375 295.210938 C 93.449219 276.191406 120.417969 256.863281 146.5 238.167969 C 172.414062 219.589844 199.207031 200.382812 225.851562 181.683594 L 225.894531 181.644531 C 230.6875 177.460938 235.691406 174.097656 240.984375 170.527344 C 243.277344 168.984375 245.640625 167.390625 247.972656 165.742188 C 274.425781 146.488281 299.8125 128.238281 325.574219 109.933594 C 330.851562 106.183594 336.222656 102.417969 341.417969 98.773438 C 352.210938 91.199219 363.363281 83.375 374.269531 75.304688 C 380.328125 165.53125 386.253906 257.261719 391.984375 345.976562 C 397.308594 428.5 402.824219 513.847656 408.425781 597.695312 C 408.425781 597.695312 408.425781 597.695312 408.425781 597.699219 L 408.472656 598.488281 L 409.195312 598.167969 C 409.195312 598.167969 409.222656 598.15625 409.238281 598.144531 C 421.507812 592.742188 433.628906 587.519531 446.289062 582.183594 C 473.304688 570.148438 500.113281 558.460938 526.042969 547.160156 C 552.25 535.734375 579.34375 523.921875 606.054688 512.011719 C 609.238281 513.28125 612.371094 514.554688 615.511719 515.835938 C 621.828125 518.402344 628.351562 521.0625 635.136719 523.621094 C 636.054688 524.109375 636.964844 524.496094 637.839844 524.875 C 638.707031 525.246094 639.605469 525.625 640.488281 526.101562 L 640.535156 526.121094 L 640.582031 526.136719 C 641.890625 526.554688 643.117188 527 644.308594 527.425781 C 645.507812 527.851562 646.746094 528.296875 648.070312 528.726562 C 650.972656 529.886719 653.875 531.085938 656.679688 532.246094 C 663.425781 535.03125 669.796875 537.664062 676.871094 540.066406 C 677.789062 540.550781 678.691406 540.941406 679.570312 541.316406 C 680.4375 541.683594 681.335938 542.070312 682.21875 542.542969 L 682.261719 542.5625 L 682.3125 542.582031 C 684.921875 543.414062 687.402344 544.40625 689.792969 545.363281 C 692.207031 546.324219 694.699219 547.320312 697.347656 548.164062 C 702.398438 550.074219 707.277344 552.167969 711.992188 554.203125 C 716.71875 556.234375 721.605469 558.339844 726.707031 560.265625 C 743.414062 566.730469 758.71875 572.824219 774.925781 579.285156 C 780.972656 581.691406 787.074219 584.121094 793.300781 586.597656 C 795.011719 587.210938 796.617188 587.839844 798.167969 588.449219 C 801.101562 589.597656 803.871094 590.6875 807 591.558594 C 807.632812 591.855469 808.171875 592.164062 808.738281 592.488281 C 809.308594 592.820312 809.902344 593.15625 810.597656 593.480469 L 810.640625 593.5 L 810.6875 593.511719 C 812.179688 593.890625 813.738281 594.492188 815.246094 595.066406 C 816.785156 595.65625 818.378906 596.265625 819.929688 596.660156 C 824.664062 598.316406 829.1875 600.203125 833.980469 602.199219 C 835.761719 602.941406 837.554688 603.6875 839.378906 604.429688 C 840.304688 604.917969 841.210938 605.308594 842.089844 605.683594 C 842.957031 606.058594 843.855469 606.4375 844.746094 606.910156 L 844.773438 606.925781 L 844.804688 606.9375 C 846.351562 607.523438 847.816406 608.144531 849.234375 608.738281 C 850.664062 609.339844 852.144531 609.960938 853.699219 610.554688 C 854.402344 610.882812 855.097656 611 855.761719 611.113281 C 856.382812 611.21875 856.96875 611.316406 857.582031 611.597656 C 858.480469 612.082031 859.398438 612.472656 860.289062 612.851562 C 861.160156 613.226562 862.054688 613.605469 862.941406 614.078125 L 862.96875 614.09375 L 863 614.105469 C 863.730469 614.386719 864.441406 614.644531 865.132812 614.902344 C 867.355469 615.722656 869.453125 616.5 871.847656 617.699219 C 872.605469 618.050781 873.292969 618.167969 873.957031 618.28125 C 874.578125 618.386719 875.167969 618.484375 875.777344 618.765625 C 879.804688 620.441406 883.769531 622.058594 887.59375 623.613281 C 891.421875 625.171875 895.378906 626.78125 899.386719 628.453125 C 931.5 640.953125 961.121094 652.789062 992.476562 665.316406 C 1007.0625 671.144531 1022.144531 677.175781 1037.519531 683.28125 C 1039.984375 684.167969 1042.203125 684.976562 1044.429688 685.78125 C 1046.625 686.582031 1048.816406 687.378906 1051.226562 688.246094 C 1065.144531 693.90625 1078.910156 699.3125 1092.222656 704.539062 C 1106.414062 710.109375 1121.078125 715.863281 1135.601562 721.8125 L 1135.839844 721.910156 L 1136.0625 721.796875 C 1207.730469 684.871094 1280.8125 647.621094 1351.484375 611.605469 C 1393.835938 590.015625 1437.628906 567.699219 1480.664062 545.679688 L 1480.164062 544.703125 C 1437.128906 566.71875 1393.339844 589.039062 1350.988281 610.625 C 1280.386719 646.609375 1207.386719 683.816406 1135.789062 720.703125 C 1121.335938 714.785156 1106.742188 709.058594 1092.628906 703.515625 C 1079.320312 698.292969 1065.558594 692.890625 1051.628906 687.222656 C 1049.195312 686.347656 1047.003906 685.550781 1044.808594 684.753906 C 1042.585938 683.945312 1040.363281 683.140625 1037.910156 682.253906 C 1022.550781 676.152344 1007.46875 670.125 992.882812 664.292969 C 961.527344 651.765625 931.910156 639.929688 899.800781 627.429688 C 895.796875 625.765625 891.839844 624.152344 888.011719 622.597656 C 884.1875 621.042969 880.230469 619.429688 876.222656 617.761719 C 875.5 617.425781 874.808594 617.308594 874.144531 617.195312 C 873.523438 617.089844 872.933594 616.992188 872.324219 616.710938 C 869.894531 615.484375 867.765625 614.699219 865.511719 613.867188 C 864.832031 613.617188 864.140625 613.363281 863.425781 613.085938 C 862.507812 612.597656 861.597656 612.214844 860.71875 611.835938 C 859.851562 611.460938 858.953125 611.074219 858.0625 610.601562 C 857.292969 610.246094 856.609375 610.128906 855.941406 610.015625 C 855.320312 609.910156 854.734375 609.8125 854.121094 609.527344 C 852.546875 608.921875 851.078125 608.304688 849.652344 607.707031 C 848.234375 607.105469 846.769531 606.496094 845.222656 605.902344 C 844.304688 605.414062 843.398438 605.027344 842.519531 604.648438 C 841.648438 604.277344 840.753906 603.894531 839.867188 603.417969 L 839.8125 603.394531 C 837.984375 602.648438 836.179688 601.902344 834.394531 601.160156 C 829.589844 599.15625 825.046875 597.265625 820.238281 595.589844 C 818.703125 595.195312 817.144531 594.59375 815.632812 594.019531 C 814.109375 593.433594 812.535156 592.835938 811.003906 592.441406 C 810.371094 592.144531 809.835938 591.839844 809.269531 591.515625 C 808.699219 591.1875 808.105469 590.851562 807.414062 590.527344 L 807.375 590.511719 L 807.332031 590.5 C 804.242188 589.636719 801.480469 588.554688 798.558594 587.410156 C 796.996094 586.800781 795.386719 586.167969 793.675781 585.550781 C 787.457031 583.082031 781.363281 580.652344 775.316406 578.246094 C 759.109375 571.789062 743.800781 565.691406 727.082031 559.21875 C 721.996094 557.300781 717.121094 555.207031 712.410156 553.171875 C 707.683594 551.140625 702.796875 549.035156 697.695312 547.109375 C 695.054688 546.261719 692.582031 545.28125 690.183594 544.324219 C 687.789062 543.367188 685.308594 542.378906 682.675781 541.53125 C 681.761719 541.046875 680.863281 540.660156 679.980469 540.289062 C 679.113281 539.914062 678.21875 539.53125 677.328125 539.058594 L 677.289062 539.035156 L 677.246094 539.019531 C 670.1875 536.625 663.820312 533.992188 657.082031 531.207031 C 654.269531 530.046875 651.363281 528.84375 648.421875 527.671875 C 647.082031 527.242188 645.847656 526.796875 644.664062 526.367188 C 643.480469 525.945312 642.253906 525.5 640.945312 525.082031 C 640.035156 524.597656 639.132812 524.214844 638.253906 523.839844 C 637.382812 523.464844 636.488281 523.085938 635.597656 522.609375 L 635.5625 522.59375 L 635.53125 522.582031 C 628.746094 520.023438 622.21875 517.363281 615.894531 514.796875 C 612.683594 513.488281 609.472656 512.1875 606.214844 510.882812 L 606 510.796875 L 605.785156 510.890625 C 579.007812 522.835938 551.839844 534.675781 525.570312 546.132812 C 499.640625 557.433594 472.824219 569.121094 445.820312 581.15625 C 433.398438 586.394531 421.480469 591.523438 409.4375 596.820312 C 403.851562 513.226562 398.359375 428.15625 393.050781 345.882812 C 387.296875 256.835938 381.351562 164.757812 375.269531 74.207031 L 375.203125 73.199219 L 374.398438 73.800781 L 374.386719 73.808594 C 363.238281 82.078125 351.808594 90.097656 340.753906 97.851562 C 335.558594 101.496094 330.1875 105.265625 324.90625 109.015625 C 299.132812 127.320312 273.75 145.578125 247.296875 164.828125 C 244.988281 166.464844 242.621094 168.058594 240.339844 169.597656 C 235.261719 173.019531 230.007812 176.558594 225.167969 180.773438 C 198.53125 199.472656 171.742188 218.679688 145.832031 237.25 C 119.753906 255.945312 92.785156 275.273438 65.6875 294.292969 C 63.316406 296.039062 60.945312 297.820312 58.652344 299.546875 C 51.660156 304.820312 45.054688 309.796875 37.949219 314 L 37.820312 314.109375 C 35.554688 316.683594 32.726562 318.476562 29.738281 320.371094 C 27.296875 321.921875 24.773438 323.523438 22.597656 325.582031 C 15.367188 330.164062 8.628906 335.160156 1.488281 340.453125 C 0.03125 341.535156 -1.4375 342.625 -2.914062 343.714844 C -9.457031 348.472656 -16.148438 353.113281 -22.617188 357.597656 C -29.097656 362.089844 -35.792969 366.734375 -42.359375 371.507812 C -50.566406 377.933594 -58.976562 383.804688 -67.113281 389.476562 L -70.390625 391.765625 Z M -70.359375 391.792969 "/>
<path style=" stroke:none;fill-rule:nonzero;fill:rgb(0%,58.039216%,100%);fill-opacity:1;" d="M -60.242188 457 L -59.515625 457.824219 C -27.097656 429.28125 9.640625 396.9375 48.113281 362.617188 L 55.882812 356.429688 C 75.871094 338.722656 94.886719 322 113.273438 305.824219 C 131.660156 289.652344 150.675781 272.929688 170.648438 255.242188 C 171.933594 253.980469 173.136719 252.839844 174.304688 251.734375 C 175.464844 250.632812 176.660156 249.496094 177.925781 248.257812 C 194.285156 233.835938 210.035156 219.976562 225.53125 206.332031 C 260.320312 175.71875 293.171875 146.796875 329.296875 114.742188 C 330 114.023438 330.804688 113.503906 331.65625 112.957031 C 332.519531 112.402344 333.414062 111.824219 334.171875 111.042969 C 342.414062 103.488281 350.433594 96.453125 358.195312 89.640625 C 363.285156 85.179688 368.535156 80.570312 373.742188 75.910156 C 366.394531 103.015625 359.339844 130.589844 352.519531 157.28125 C 345.988281 182.820312 339.230469 209.234375 332.207031 235.285156 C 332.113281 235.824219 332.089844 236.351562 332.074219 236.867188 C 332.039062 237.75 332.003906 238.65625 331.667969 239.414062 C 331.480469 239.6875 331.320312 240.03125 331.160156 240.363281 C 331.019531 240.671875 330.871094 240.992188 330.734375 241.179688 L 330.671875 241.265625 L 330.644531 241.371094 L 325.972656 259.601562 C 317.457031 294.457031 308.261719 329.335938 299.359375 363.070312 C 295.183594 378.902344 290.867188 395.277344 286.632812 411.574219 C 278.328125 445.121094 269.722656 478.390625 262.304688 506.953125 C 262.128906 507.214844 261.972656 507.546875 261.824219 507.867188 C 261.683594 508.171875 261.535156 508.488281 261.394531 508.679688 L 261.328125 508.765625 L 261.300781 508.875 C 257.339844 525.726562 252.914062 542.546875 248.632812 558.8125 C 244.792969 573.410156 240.824219 588.5 237.226562 603.46875 C 236.136719 607.160156 235.128906 610.921875 234.15625 614.554688 C 233.183594 618.1875 232.179688 621.945312 231.089844 625.648438 C 228.152344 638.386719 224.734375 651.347656 221.429688 663.886719 C 220.222656 668.472656 219.019531 673.046875 217.835938 677.609375 L 217.554688 678.695312 L 218.582031 678.257812 C 218.660156 678.222656 218.730469 678.191406 218.808594 678.164062 C 248.351562 665.46875 278.332031 653.007812 307.324219 640.953125 C 339.078125 627.753906 371.910156 614.097656 404.863281 599.871094 C 407.308594 598.613281 409.210938 597.964844 411.457031 597.617188 C 478.707031 586.550781 547.0625 575.199219 613.167969 564.21875 C 679.226562 553.246094 747.535156 541.898438 814.742188 530.84375 C 842.351562 547.972656 870.324219 565.410156 897.375 582.269531 C 924.480469 599.164062 952.511719 616.636719 980.183594 633.804688 L 980.460938 633.976562 L 980.746094 633.816406 C 986.898438 630.355469 993.070312 626.429688 999.039062 622.628906 C 999.332031 622.421875 999.535156 622.394531 999.816406 622.351562 C 1000.144531 622.300781 1000.550781 622.234375 1001.035156 621.894531 L 1011.242188 615.320312 C 1011.535156 615.117188 1011.738281 615.082031 1012.015625 615.039062 C 1012.34375 614.988281 1012.75 614.921875 1013.234375 614.582031 C 1014.921875 613.496094 1016.554688 612.394531 1018.136719 611.328125 C 1019.710938 610.265625 1021.335938 609.167969 1023.042969 608.074219 C 1046.480469 594.015625 1070.019531 579.769531 1092.777344 565.988281 C 1115.527344 552.210938 1139.054688 537.96875 1162.496094 523.917969 C 1167.003906 521.15625 1171.652344 518.316406 1176.171875 515.109375 C 1176.539062 514.847656 1176.714844 514.894531 1177.332031 515.121094 C 1177.457031 515.164062 1177.59375 515.214844 1177.742188 515.265625 C 1180.675781 516.738281 1183.703125 517.945312 1187.5625 519.179688 C 1188.714844 519.546875 1189.75 520.152344 1190.84375 520.789062 C 1191.355469 521.085938 1191.886719 521.398438 1192.453125 521.703125 L 1192.480469 521.71875 L 1192.507812 521.730469 C 1226.757812 535.585938 1259.933594 549.296875 1292.015625 562.558594 C 1324.085938 575.8125 1357.246094 589.515625 1391.480469 603.367188 C 1404.445312 608.484375 1417.164062 613.742188 1429.46875 618.828125 C 1441.539062 623.8125 1454.019531 628.96875 1466.511719 633.90625 L 1466.914062 632.882812 C 1454.429688 627.953125 1441.953125 622.796875 1429.886719 617.816406 C 1417.578125 612.730469 1404.851562 607.476562 1391.886719 602.351562 C 1357.664062 588.503906 1324.503906 574.800781 1292.4375 561.546875 C 1260.363281 548.292969 1227.195312 534.582031 1192.949219 520.730469 C 1192.40625 520.4375 1191.894531 520.140625 1191.40625 519.855469 C 1190.253906 519.183594 1189.171875 518.550781 1187.902344 518.144531 C 1184.085938 516.925781 1181.097656 515.730469 1178.207031 514.273438 L 1178.167969 514.253906 L 1178.128906 514.242188 C 1177.980469 514.191406 1177.84375 514.144531 1177.714844 514.097656 C 1177.066406 513.863281 1176.398438 513.621094 1175.546875 514.226562 C 1171.058594 517.414062 1166.425781 520.246094 1161.945312 522.988281 C 1138.5 537.042969 1114.972656 551.292969 1092.21875 565.0625 C 1069.460938 578.84375 1045.921875 593.09375 1022.46875 607.15625 C 1020.742188 608.265625 1019.109375 609.371094 1017.53125 610.4375 C 1015.960938 611.5 1014.332031 612.597656 1012.628906 613.691406 C 1012.339844 613.894531 1012.132812 613.929688 1011.855469 613.972656 C 1011.523438 614.023438 1011.117188 614.089844 1010.632812 614.429688 L 1000.425781 621.003906 C 1000.132812 621.207031 999.929688 621.238281 999.652344 621.285156 C 999.320312 621.332031 998.914062 621.398438 998.429688 621.738281 C 992.585938 625.457031 986.523438 629.308594 980.492188 632.722656 C 952.914062 615.609375 924.976562 598.199219 897.957031 581.363281 C 870.851562 564.46875 842.816406 546.996094 815.148438 529.828125 L 814.972656 529.714844 L 814.769531 529.75 C 747.5 540.820312 679.117188 552.179688 612.992188 563.160156 C 546.886719 574.140625 478.535156 585.496094 411.289062 596.558594 C 408.917969 596.925781 406.917969 597.605469 404.398438 598.90625 C 371.492188 613.113281 338.660156 626.765625 306.90625 639.964844 C 278.171875 651.910156 248.476562 664.253906 219.1875 676.832031 C 220.28125 672.632812 221.390625 668.421875 222.503906 664.199219 C 225.8125 651.65625 229.230469 638.683594 232.160156 625.960938 C 233.246094 622.273438 234.25 618.511719 235.222656 614.875 C 236.195312 611.242188 237.203125 607.484375 238.289062 603.78125 C 241.890625 588.800781 245.859375 573.710938 249.699219 559.125 C 253.96875 542.882812 258.390625 526.089844 262.347656 509.261719 C 262.523438 508.996094 262.671875 508.671875 262.820312 508.359375 C 262.960938 508.050781 263.109375 507.734375 263.25 507.546875 L 263.308594 507.464844 L 263.335938 507.363281 C 270.761719 478.78125 279.378906 445.464844 287.695312 411.890625 C 291.921875 395.59375 296.242188 379.226562 300.414062 363.394531 C 309.316406 329.65625 318.511719 294.777344 327.03125 259.914062 L 331.679688 241.785156 C 331.855469 241.519531 332.007812 241.191406 332.152344 240.871094 C 332.292969 240.5625 332.441406 240.242188 332.578125 240.058594 L 332.632812 239.964844 C 333.085938 238.980469 333.125 237.90625 333.164062 236.953125 C 333.179688 236.449219 333.199219 235.984375 333.265625 235.566406 C 340.285156 209.554688 347.039062 183.140625 353.574219 157.597656 C 360.542969 130.34375 367.75 102.164062 375.265625 74.507812 C 375.269531 74.484375 375.277344 74.464844 375.28125 74.441406 L 375.761719 72.683594 L 375.734375 72.707031 L 375.742188 72.667969 L 374.386719 73.886719 C 368.734375 78.964844 363.007812 83.992188 357.464844 88.851562 C 349.703125 95.660156 341.671875 102.703125 333.402344 110.285156 C 332.707031 111 331.902344 111.515625 331.050781 112.058594 C 330.1875 112.613281 329.292969 113.191406 328.535156 113.972656 C 292.4375 146 259.582031 174.914062 224.800781 205.527344 C 209.304688 219.167969 193.554688 233.03125 177.171875 247.472656 C 175.890625 248.726562 174.714844 249.84375 173.542969 250.957031 C 172.378906 252.0625 171.175781 253.210938 169.898438 254.453125 C 149.949219 272.121094 130.941406 288.84375 112.554688 305.019531 C 94.164062 321.191406 75.148438 337.914062 55.179688 355.601562 L 47.410156 361.792969 C 8.914062 396.128906 -27.824219 428.472656 -60.242188 457.015625 Z M -60.242188 457 "/>
<path style=" stroke:none;fill-rule:nonzero;fill:rgb(0%,58.039216%,100%);fill-opacity:1;" d="M -55.761719 484.355469 L -55.492188 485.421875 C -27.800781 478.472656 0.355469 471.371094 27.589844 464.496094 C 102.511719 445.597656 179.976562 426.054688 256.542969 407.449219 L 256.597656 407.429688 C 289.546875 395.816406 321.074219 384.253906 354.453125 372.019531 C 376.046875 364.101562 398.382812 355.910156 421.117188 347.714844 C 430.335938 344.304688 439.273438 340.96875 447.921875 337.738281 C 467.019531 330.601562 485.0625 323.863281 505.03125 316.777344 L 507.742188 316.351562 C 546.628906 322.757812 585.785156 329.160156 623.65625 335.351562 C 696.96875 347.335938 772.773438 359.730469 847.675781 372.324219 C 920.753906 381 994.957031 390.207031 1066.71875 399.121094 C 1084.875 418.335938 1103.453125 437.957031 1121.425781 456.933594 C 1139.441406 475.960938 1158.0625 495.628906 1176.265625 514.890625 L 1176.59375 515.238281 L 1176.984375 514.960938 C 1179.15625 513.417969 1181.585938 512.246094 1183.929688 511.109375 C 1185.574219 510.3125 1187.277344 509.492188 1188.863281 508.550781 C 1193.742188 505.753906 1198.789062 502.851562 1203.8125 500.410156 C 1214.972656 494.292969 1226.109375 488.222656 1236.871094 482.351562 C 1247.640625 476.480469 1258.773438 470.40625 1269.910156 464.304688 C 1294.308594 450.699219 1313.257812 440.304688 1331.351562 430.597656 C 1340.988281 425.394531 1350.554688 420.082031 1359.800781 414.941406 C 1373.375 407.398438 1387.410156 399.601562 1401.644531 392.175781 C 1402.3125 391.78125 1403 391.394531 1403.707031 391 C 1405.125 390.203125 1406.59375 389.371094 1407.96875 388.453125 L 1407.359375 387.542969 C 1406.015625 388.4375 1404.570312 389.25 1403.167969 390.042969 C 1402.453125 390.445312 1401.761719 390.835938 1401.113281 391.21875 C 1386.886719 398.636719 1372.847656 406.4375 1359.269531 413.984375 C 1350.023438 419.117188 1340.460938 424.433594 1330.832031 429.628906 C 1312.730469 439.34375 1293.773438 449.738281 1269.378906 463.34375 C 1258.238281 469.445312 1247.109375 475.519531 1236.34375 481.390625 C 1225.574219 487.261719 1214.445312 493.335938 1203.304688 499.4375 C 1198.277344 501.882812 1193.207031 504.792969 1188.308594 507.605469 C 1186.753906 508.523438 1185.070312 509.339844 1183.449219 510.125 C 1181.203125 511.214844 1178.882812 512.335938 1176.738281 513.796875 C 1158.640625 494.644531 1140.125 475.089844 1122.222656 456.179688 C 1104.207031 437.15625 1085.582031 417.484375 1067.382812 398.222656 L 1067.246094 398.082031 L 1067.046875 398.058594 C 995.226562 389.140625 920.953125 379.921875 847.828125 371.242188 C 772.949219 358.652344 697.144531 346.257812 623.828125 334.273438 C 585.929688 328.078125 546.746094 321.675781 507.832031 315.257812 L 507.65625 315.257812 L 504.707031 315.726562 C 484.710938 322.824219 466.652344 329.570312 447.53125 336.714844 C 438.890625 339.941406 429.953125 343.285156 420.738281 346.6875 C 398.003906 354.886719 375.667969 363.074219 354.066406 370.988281 C 320.699219 383.222656 289.183594 394.777344 256.25 406.390625 C 179.691406 425 102.230469 444.542969 27.3125 463.4375 C 0.0820312 470.308594 -28.078125 477.410156 -55.765625 484.359375 Z M -55.761719 484.355469 "/>
<path style=" stroke:none;fill-rule:nonzero;fill:rgb(0%,58.039216%,100%);fill-opacity:1;" d="M 502.980469 313.839844 L 506.304688 316.148438 L 814.992188 530.839844 L 815.289062 530.691406 L 993.382812 438.265625 L 1176.519531 514.914062 L 1176.941406 513.894531 L 993.335938 437.054688 L 815.074219 529.558594 L 510.25 317.558594 L 763.757812 406.566406 L 764 406.359375 L 973.136719 224.066406 L 1209.09375 444.511719 L 1209.84375 443.707031 L 973.160156 222.585938 L 972.792969 222.910156 L 763.523438 405.320312 Z M 502.980469 313.839844 "/>
<path style=" stroke:none;fill-rule:nonzero;fill:rgb(0%,58.039216%,100%);fill-opacity:1;" d="M -89.695312 266.460938 L -89.226562 267.457031 C -40.199219 244.460938 9.519531 220.933594 57.597656 198.175781 C 74.027344 190.394531 90.476562 182.609375 106.953125 174.820312 C 143.25 188.648438 186.304688 204.929688 230.613281 220.945312 C 234.164062 222.285156 237.707031 223.660156 241.132812 224.984375 C 250.765625 228.710938 259.863281 232.234375 269.492188 235.3125 C 270.40625 235.796875 271.3125 236.1875 272.1875 236.5625 C 273.054688 236.933594 273.953125 237.3125 274.835938 237.785156 L 274.871094 237.804688 L 274.902344 237.8125 C 276.957031 238.601562 278.980469 239.210938 281.125 239.855469 C 282.21875 240.183594 283.351562 240.519531 284.535156 240.898438 C 285.445312 241.382812 286.355469 241.773438 287.226562 242.144531 C 288.097656 242.519531 288.992188 242.898438 289.878906 243.371094 L 289.921875 243.394531 L 289.972656 243.410156 C 294.054688 244.71875 297.84375 246.105469 301.507812 247.445312 C 303.371094 248.128906 305.242188 248.808594 307.15625 249.484375 C 311.585938 251.289062 315.976562 252.9375 320.226562 254.535156 C 324.464844 256.132812 328.851562 257.78125 333.292969 259.582031 C 335.957031 260.433594 338.417969 261.320312 340.796875 262.179688 C 343.171875 263.035156 345.628906 263.914062 348.253906 264.757812 C 349.421875 265.421875 350.660156 265.867188 351.859375 266.296875 C 353.085938 266.734375 354.238281 267.152344 355.34375 267.785156 L 355.394531 267.8125 L 355.449219 267.828125 C 359.382812 269.089844 363.199219 270.507812 366.886719 271.875 C 370.585938 273.25 374.417969 274.671875 378.378906 275.9375 C 381.394531 277.09375 384.527344 278.289062 387.667969 279.867188 L 387.699219 279.882812 L 387.734375 279.894531 C 394.777344 282.34375 401.628906 284.875 408.261719 287.332031 C 414.894531 289.789062 421.75 292.324219 428.804688 294.777344 C 445.464844 300.949219 461.777344 307.128906 477.546875 313.105469 C 483.636719 315.414062 489.738281 317.722656 495.898438 320.046875 L 496.289062 319.019531 C 490.136719 316.695312 484.035156 314.386719 477.941406 312.078125 C 462.171875 306.101562 445.859375 299.921875 429.183594 293.742188 C 422.128906 291.292969 415.273438 288.757812 408.652344 286.304688 C 402.027344 283.855469 395.183594 281.320312 388.140625 278.875 C 384.96875 277.277344 381.820312 276.074219 378.765625 274.910156 C 374.789062 273.632812 370.972656 272.214844 367.285156 270.847656 C 363.601562 269.476562 359.792969 268.066406 355.847656 266.800781 C 354.679688 266.136719 353.441406 265.691406 352.242188 265.261719 C 351.015625 264.820312 349.863281 264.40625 348.757812 263.773438 L 348.707031 263.746094 L 348.652344 263.726562 C 346.03125 262.886719 343.5625 262.003906 341.183594 261.144531 C 338.792969 260.285156 336.324219 259.394531 333.683594 258.550781 C 329.269531 256.753906 324.878906 255.101562 320.632812 253.503906 C 316.394531 251.910156 312.007812 250.261719 307.566406 248.453125 C 305.636719 247.769531 303.773438 247.089844 301.910156 246.40625 C 298.25 245.066406 294.460938 243.679688 290.378906 242.371094 C 289.464844 241.886719 288.5625 241.503906 287.6875 241.128906 C 286.820312 240.753906 285.925781 240.375 285.035156 239.898438 L 284.992188 239.875 L 284.941406 239.859375 C 283.738281 239.472656 282.582031 239.128906 281.464844 238.792969 C 279.355469 238.160156 277.359375 237.5625 275.347656 236.792969 C 274.429688 236.300781 273.523438 235.917969 272.644531 235.539062 C 271.773438 235.164062 270.878906 234.785156 269.988281 234.308594 L 269.945312 234.285156 L 269.894531 234.269531 C 260.28125 231.191406 251.183594 227.671875 241.550781 223.945312 C 238.121094 222.621094 234.574219 221.246094 231.011719 219.898438 C 186.617188 203.851562 143.484375 187.542969 107.148438 173.699219 L 106.929688 173.617188 L 106.714844 173.714844 C 90.175781 181.539062 73.65625 189.355469 57.152344 197.167969 C 9.074219 219.925781 -40.636719 243.453125 -89.667969 266.445312 Z M -89.695312 266.460938 "/>
<path style=" stroke:none;fill-rule:nonzero;fill:rgb(0%,58.039216%,100%);fill-opacity:1;" d="M 763.132812 406.15625 L 814.675781 530.753906 L 1165.0625 522.042969 L 1165.035156 520.941406 L 815.402344 529.640625 L 764.148438 405.734375 Z M 763.132812 406.15625 "/>
<path style=" stroke:none;fill-rule:nonzero;fill:rgb(0%,58.039216%,100%);fill-opacity:1;" d="M -69.125 398.300781 L -68.949219 398.515625 C -45.222656 379.191406 -21.269531 359.425781 1.894531 340.308594 C 29.546875 317.492188 58.136719 293.898438 86.539062 270.898438 C 94.339844 270.242188 102.273438 269.621094 109.953125 269.015625 C 125.339844 267.8125 141.253906 266.566406 156.851562 264.976562 C 157.882812 265.019531 158.835938 264.980469 159.757812 264.941406 C 160.671875 264.90625 161.617188 264.859375 162.65625 264.910156 C 185.929688 262.957031 209.386719 261.0625 232.074219 259.226562 C 271.839844 256.003906 312.960938 252.671875 353.585938 249.027344 C 406.96875 254.15625 461.320312 259.023438 513.890625 263.726562 C 562.484375 268.078125 612.730469 272.574219 662.089844 277.269531 C 662.109375 277.269531 662.128906 277.269531 662.15625 277.273438 L 662.199219 277.003906 L 662.1875 277.003906 C 569.90625 253.980469 476.292969 230.882812 385.765625 208.542969 C 343.210938 198.042969 299.207031 187.179688 255.894531 176.464844 L 255.828125 176.734375 C 299.132812 187.449219 343.140625 198.304688 385.699219 208.8125 C 475.652344 231.007812 568.636719 253.953125 660.351562 276.828125 C 611.558594 272.195312 561.929688 267.753906 513.910156 263.453125 C 461.347656 258.746094 406.988281 253.882812 353.585938 248.753906 C 312.9375 252.402344 271.820312 255.734375 232.050781 258.949219 C 209.363281 260.789062 185.902344 262.6875 162.648438 264.636719 C 161.609375 264.589844 160.664062 264.636719 159.746094 264.667969 C 158.835938 264.707031 157.890625 264.75 156.84375 264.703125 C 141.234375 266.289062 125.324219 267.53125 109.929688 268.742188 C 102.242188 269.347656 94.292969 269.96875 86.476562 270.621094 L 86.429688 270.621094 L 86.398438 270.65625 C 57.988281 293.667969 29.378906 317.269531 1.71875 340.101562 C -21.445312 359.214844 -45.398438 378.984375 -69.125 398.304688 Z M -69.125 398.300781 "/>
<g clip-path="url(#clip1)" clip-rule="nonzero">
<path style=" stroke:none;fill-rule:nonzero;fill:rgb(0%,58.039216%,100%);fill-opacity:1;" d="M 982.042969 257.578125 L 982.011719 257.675781 L 902.304688 512.449219 L 902.3125 512.484375 L 918.070312 602.347656 L 882.910156 668.878906 L 812.886719 745.742188 L 813.089844 745.921875 L 883.136719 669.039062 L 883.148438 669.027344 L 918.359375 602.390625 L 918.347656 602.347656 L 902.585938 512.472656 L 982.242188 257.855469 L 1275.675781 264.707031 L 1275.6875 264.4375 Z M 982.042969 257.578125 "/>
</g>
<path style=" stroke:none;fill-rule:nonzero;fill:rgb(0%,58.039216%,100%);fill-opacity:1;" d="M -56.78125 476.914062 L -56.695312 477.460938 C -42.972656 475.234375 -29.265625 473.03125 -15.554688 470.832031 C 26.675781 464.046875 70.339844 457.039062 113.394531 449.402344 C 186.871094 424.945312 257.636719 400.761719 332.558594 375.164062 C 348.457031 369.730469 364.480469 364.257812 380.675781 358.726562 C 388.097656 356.25 395.394531 353.777344 402.453125 351.386719 C 418.078125 346.097656 432.835938 341.101562 448.835938 336.054688 C 450.820312 335.328125 452.6875 334.621094 454.5625 333.910156 C 456.433594 333.203125 458.300781 332.5 460.273438 331.773438 C 464 330.519531 467.800781 329.332031 471.476562 328.183594 C 479.0625 325.8125 486.910156 323.363281 494.300781 320.246094 C 575.621094 309.910156 658.285156 299.300781 738.230469 289.042969 C 818.136719 278.785156 900.765625 268.179688 982.054688 257.851562 C 992.679688 269.757812 1003.316406 281.0625 1014.574219 293.027344 L 1016.015625 294.554688 C 1020.75 299.71875 1025.222656 304.667969 1029.550781 309.449219 C 1039.078125 319.988281 1048.074219 329.9375 1058.636719 340.871094 C 1059.121094 341.398438 1059.519531 341.964844 1059.910156 342.515625 C 1060.308594 343.074219 1060.71875 343.652344 1061.234375 344.214844 C 1065.464844 348.339844 1068.851562 352.152344 1073.269531 357.339844 C 1093.140625 378.230469 1111.125 397.75 1133.421875 422.609375 C 1134.4375 423.714844 1135.386719 424.417969 1136.316406 425.09375 C 1138.921875 428.441406 1141.710938 431.394531 1144.402344 434.246094 C 1147.097656 437.097656 1149.878906 440.050781 1152.472656 443.386719 L 1152.527344 443.445312 C 1153.441406 444.109375 1154.386719 444.800781 1155.371094 445.878906 C 1160.789062 452.523438 1166.160156 458.148438 1171.851562 464.101562 C 1175.28125 467.691406 1178.828125 471.402344 1182.460938 475.433594 C 1186.480469 479.757812 1190.265625 484.011719 1193.921875 488.128906 C 1200.925781 496.003906 1207.539062 503.441406 1215.519531 511.15625 C 1215.742188 511.476562 1215.882812 511.75 1216.03125 512.042969 C 1216.179688 512.335938 1216.339844 512.636719 1216.613281 513.03125 C 1218.121094 514.683594 1219.605469 516.203125 1221.035156 517.671875 C 1223.519531 520.230469 1225.867188 522.636719 1228.132812 525.429688 C 1229.152344 526.542969 1230.148438 527.457031 1231.105469 528.335938 C 1232.058594 529.210938 1233.039062 530.113281 1234.035156 531.195312 C 1234.273438 531.53125 1234.410156 531.800781 1234.558594 532.089844 C 1234.707031 532.382812 1234.867188 532.683594 1235.140625 533.082031 C 1252.898438 552.03125 1269.460938 570.011719 1285.480469 587.398438 C 1301.496094 604.785156 1318.0625 622.769531 1335.789062 641.683594 C 1336.019531 642.015625 1336.164062 642.289062 1336.3125 642.574219 C 1336.460938 642.867188 1336.621094 643.167969 1336.894531 643.5625 C 1343.5625 650.214844 1349.492188 656.761719 1355.226562 663.097656 C 1358.867188 667.109375 1362.625 671.265625 1366.539062 675.402344 L 1366.941406 675.023438 C 1363.035156 670.890625 1359.273438 666.742188 1355.640625 662.726562 C 1349.902344 656.394531 1343.964844 649.84375 1337.316406 643.210938 C 1337.09375 642.886719 1336.949219 642.613281 1336.800781 642.328125 C 1336.652344 642.035156 1336.492188 641.726562 1336.21875 641.335938 C 1318.460938 622.394531 1301.90625 604.414062 1285.886719 587.023438 C 1269.867188 569.636719 1253.304688 551.65625 1235.570312 532.734375 C 1235.339844 532.40625 1235.195312 532.128906 1235.046875 531.84375 C 1234.898438 531.554688 1234.738281 531.25 1234.464844 530.855469 C 1233.429688 529.722656 1232.4375 528.816406 1231.480469 527.9375 C 1230.527344 527.0625 1229.542969 526.160156 1228.550781 525.078125 C 1226.277344 522.277344 1223.925781 519.859375 1221.429688 517.296875 C 1220 515.832031 1218.523438 514.3125 1217.042969 512.699219 C 1216.808594 512.363281 1216.671875 512.09375 1216.523438 511.800781 C 1216.375 511.511719 1216.214844 511.207031 1215.9375 510.8125 C 1207.933594 503.066406 1201.328125 495.640625 1194.335938 487.773438 C 1190.671875 483.65625 1186.886719 479.402344 1182.867188 475.070312 C 1179.226562 471.035156 1175.683594 467.324219 1172.253906 463.734375 C 1166.566406 457.785156 1161.203125 452.171875 1155.789062 445.53125 C 1154.765625 444.417969 1153.808594 443.710938 1152.886719 443.035156 C 1150.28125 439.695312 1147.5 436.742188 1144.804688 433.882812 C 1142.109375 431.03125 1139.324219 428.078125 1136.730469 424.742188 L 1136.675781 424.6875 C 1135.761719 424.023438 1134.816406 423.328125 1133.832031 422.25 C 1111.535156 397.386719 1093.546875 377.867188 1073.683594 356.984375 C 1069.261719 351.792969 1065.863281 347.972656 1061.632812 343.84375 C 1061.152344 343.324219 1060.753906 342.757812 1060.363281 342.207031 C 1059.964844 341.644531 1059.554688 341.070312 1059.039062 340.507812 C 1048.484375 329.574219 1039.484375 319.625 1029.960938 309.089844 C 1025.636719 304.304688 1021.160156 299.355469 1016.421875 294.195312 L 1014.984375 292.660156 C 1003.691406 280.664062 993.027344 269.328125 982.371094 257.390625 L 982.273438 257.28125 L 982.132812 257.296875 C 900.800781 267.632812 818.121094 278.242188 738.164062 288.503906 C 658.207031 298.769531 575.527344 309.378906 494.199219 319.710938 L 494.125 319.734375 C 486.75 322.84375 478.90625 325.296875 471.320312 327.667969 C 467.640625 328.816406 463.832031 330.007812 460.09375 331.261719 C 458.113281 331.988281 456.246094 332.695312 454.371094 333.398438 C 452.5 334.109375 450.632812 334.8125 448.660156 335.539062 C 432.667969 340.578125 417.90625 345.578125 402.277344 350.871094 C 395.21875 353.261719 387.921875 355.730469 380.5 358.210938 C 364.296875 363.738281 348.273438 369.214844 332.375 374.644531 C 257.453125 400.246094 186.6875 424.433594 113.257812 448.875 C 70.246094 456.492188 26.582031 463.507812 -15.640625 470.285156 C -29.347656 472.484375 -43.0625 474.691406 -56.785156 476.917969 Z M -56.78125 476.914062 "/>
<path style=" stroke:none;fill-rule:nonzero;fill:rgb(0%,58.039216%,100%);fill-opacity:1;" d="M -73.148438 371.203125 L -73.253906 371.457031 C -62.726562 375.738281 -52.75 380.109375 -41.726562 384.96875 C -19.835938 394.105469 0.4375 402.742188 22.089844 412.152344 C 36.726562 418.28125 50.925781 424.292969 64.65625 430.101562 C 80.585938 436.839844 95.644531 443.210938 111.386719 449.792969 C 83.617188 456.371094 55.277344 462.875 27.867188 469.171875 C 0.636719 475.421875 -27.519531 481.886719 -55.039062 488.398438 L -54.972656 488.667969 C -27.460938 482.148438 0.703125 475.691406 27.929688 469.441406 C 55.476562 463.117188 83.957031 456.582031 111.859375 449.96875 L 112.277344 449.875 L 111.878906 449.710938 C 111.878906 449.710938 111.851562 449.699219 111.839844 449.695312 C 95.96875 443.0625 80.808594 436.648438 64.761719 429.859375 C 51.027344 424.050781 36.828125 418.039062 22.195312 411.910156 C 0.542969 402.5 -19.738281 393.859375 -41.621094 384.726562 C -52.636719 379.867188 -62.621094 375.496094 -73.148438 371.214844 Z M -73.148438 371.203125 "/>
<path style=" stroke:none;fill-rule:nonzero;fill:rgb(0%,58.039216%,100%);fill-opacity:1;" d="M 836.027344 344.800781 L 835.933594 345.058594 L 942.769531 383.4375 L 993.328125 437.832031 L 993.421875 437.78125 L 1066.957031 398.488281 L 982.257812 257.644531 L 982.019531 257.785156 L 1066.574219 398.378906 L 993.390625 437.488281 L 942.925781 383.199219 L 942.898438 383.1875 Z M 836.027344 344.800781 "/>
<path style=" stroke:none;fill-rule:nonzero;fill:rgb(0%,58.039216%,100%);fill-opacity:1;" d="M 219.550781 676.113281 L 219.796875 676.230469 L 364.207031 362.929688 L 411.332031 594.484375 L 411.601562 594.429688 L 364.308594 362.058594 Z M 219.550781 676.113281 "/>
<path style=" stroke:none;fill-rule:nonzero;fill:rgb(0%,58.039216%,100%);fill-opacity:1;" d="M 3.542969 401.324219 L 3.660156 401.578125 L 325.769531 255.082031 L 102.421875 445.773438 L 102.597656 445.984375 L 327.433594 254.019531 L 326.542969 254.425781 Z M 3.542969 401.324219 "/>
<path style=" stroke:none;fill-rule:nonzero;fill:rgb(0%,58.039216%,100%);fill-opacity:1;" d="M -49.746094 564.164062 L -49.613281 564.398438 L 364.25 362.652344 L 609.46875 513.527344 L 496.277344 319.636719 L 786.351562 241.015625 L 902.324219 512.515625 L 981.261719 632.886719 L 981.296875 632.90625 L 1135.015625 720.261719 L 1135.046875 720.0625 L 1167.605469 516.210938 L 1167.332031 516.167969 L 1134.804688 719.828125 L 981.460938 632.679688 L 902.5625 512.382812 L 786.507812 240.683594 L 786.390625 240.71875 L 495.859375 319.460938 L 495.953125 319.617188 L 608.675781 512.71875 L 364.265625 362.335938 L 364.199219 362.371094 L -47.460938 563.039062 L 357.5 308.03125 L 357.351562 307.800781 Z M -49.746094 564.164062 "/>
<path style=" stroke:none;fill-rule:nonzero;fill:rgb(0%,58.039216%,100%);fill-opacity:1;" d="M 806.125 533.972656 L 806.1875 534.242188 L 1214.976562 442.347656 L 1241.285156 540.929688 L 1134.792969 719.976562 L 1135.03125 720.113281 L 1241.578125 540.96875 L 1241.566406 540.914062 L 1215.175781 442.023438 L 1215.046875 442.050781 Z M 806.125 533.972656 "/>
<path style=" stroke:none;fill-rule:nonzero;fill:rgb(0%,58.039216%,100%);fill-opacity:1;" d="M 813.238281 525.921875 C 815.757812 520.074219 824.851562 523.976562 822.328125 529.832031 C 819.808594 535.679688 810.71875 531.777344 813.238281 525.921875 Z M 813.238281 525.921875 "/>
<path style=" stroke:none;fill-rule:nonzero;fill:rgb(0%,58.039216%,100%);fill-opacity:1;" d="M 1203.722656 440.585938 C 1206.523438 434.085938 1216.625 438.417969 1213.824219 444.925781 C 1211.023438 451.425781 1200.921875 447.09375 1203.722656 440.585938 Z M 1203.722656 440.585938 "/>
<path style=" stroke:none;fill-rule:nonzero;fill:rgb(0%,58.039216%,100%);fill-opacity:1;" d="M 1062.507812 394.898438 C 1064.878906 389.371094 1073.472656 393.054688 1071.09375 398.589844 C 1068.71875 404.117188 1060.125 400.433594 1062.507812 394.898438 Z M 1062.507812 394.898438 "/>
<path style=" stroke:none;fill-rule:nonzero;fill:rgb(0%,58.039216%,100%);fill-opacity:1;" d="M 997.632812 440.421875 L 996.378906 440.882812 C 995.914062 441.089844 995.429688 441.167969 994.929688 441.125 C 994.410156 441.160156 993.917969 441.070312 993.433594 440.84375 C 992.9375 440.652344 992.527344 440.355469 992.203125 439.953125 C 991.824219 439.621094 991.554688 439.214844 991.378906 438.730469 C 991.046875 437.792969 990.972656 436.710938 991.414062 435.785156 L 991.949219 434.902344 C 992.371094 434.371094 992.898438 433.984375 993.527344 433.730469 L 994.78125 433.269531 C 995.246094 433.058594 995.730469 432.980469 996.230469 433.027344 C 996.75 432.988281 997.242188 433.082031 997.726562 433.304688 C 998.222656 433.5 998.632812 433.796875 998.957031 434.195312 C 999.335938 434.527344 999.605469 434.933594 999.78125 435.417969 C 1000.113281 436.359375 1000.191406 437.441406 999.746094 438.363281 L 999.210938 439.25 C 998.789062 439.777344 998.261719 440.167969 997.632812 440.421875 Z M 997.632812 440.421875 "/>
<path style=" stroke:none;fill-rule:nonzero;fill:rgb(0%,58.039216%,100%);fill-opacity:1;" d="M 763.984375 401.019531 L 765.238281 400.558594 C 765.910156 400.261719 766.601562 400.148438 767.3125 400.214844 C 768.046875 400.160156 768.761719 400.289062 769.445312 400.613281 C 770.152344 400.890625 770.734375 401.3125 771.203125 401.882812 C 771.742188 402.355469 772.132812 402.941406 772.378906 403.628906 L 772.730469 404.992188 C 772.847656 405.972656 772.714844 406.925781 772.324219 407.835938 L 771.566406 409.101562 C 770.957031 409.855469 770.207031 410.410156 769.304688 410.773438 L 768.054688 411.234375 C 767.382812 411.53125 766.691406 411.648438 765.980469 411.582031 C 765.242188 411.636719 764.527344 411.503906 763.847656 411.179688 C 763.136719 410.90625 762.554688 410.480469 762.089844 409.910156 C 761.550781 409.4375 761.160156 408.855469 760.910156 408.167969 L 760.558594 406.804688 C 760.445312 405.820312 760.578125 404.871094 760.96875 403.957031 L 761.726562 402.691406 C 762.335938 401.9375 763.082031 401.382812 763.984375 401.019531 Z M 763.984375 401.019531 "/>
<path style=" stroke:none;fill-rule:nonzero;fill:rgb(0%,58.039216%,100%);fill-opacity:1;" d="M 503.195312 313.707031 C 506.972656 304.933594 520.613281 310.789062 516.828125 319.574219 C 513.054688 328.347656 499.414062 322.492188 503.195312 313.707031 Z M 503.195312 313.707031 "/>
<path style=" stroke:none;fill-rule:nonzero;fill:rgb(0%,58.039216%,100%);fill-opacity:1;" d="M 368.140625 72.226562 C 371.636719 64.101562 384.265625 69.523438 380.761719 77.660156 C 377.265625 85.785156 364.640625 80.363281 368.140625 72.226562 Z M 368.140625 72.226562 "/>
<path style=" stroke:none;fill-rule:nonzero;fill:rgb(0%,58.039216%,100%);fill-opacity:1;" d="M 388.058594 352.882812 C 390.992188 346.058594 401.601562 350.613281 398.660156 357.445312 C 395.726562 364.265625 385.117188 359.714844 388.058594 352.882812 Z M 388.058594 352.882812 "/>
<path style=" stroke:none;fill-rule:nonzero;fill:rgb(0%,58.039216%,100%);fill-opacity:1;" d="M 602.730469 509.507812 C 605.105469 503.984375 613.695312 507.667969 611.316406 513.203125 C 608.9375 518.738281 600.347656 515.042969 602.730469 509.507812 Z M 602.730469 509.507812 "/>
<path style=" stroke:none;fill-rule:nonzero;fill:rgb(0%,58.039216%,100%);fill-opacity:1;" d="M 603.230469 509.730469 C 605.324219 504.851562 612.90625 508.105469 610.804688 512.988281 C 608.710938 517.863281 601.128906 514.609375 603.230469 509.730469 Z M 603.230469 509.730469 "/>
<path style=" stroke:none;fill-rule:nonzero;fill:rgb(0%,58.039216%,100%);fill-opacity:1;" d="M 406.417969 592.28125 C 409.214844 585.78125 419.320312 590.113281 416.515625 596.625 C 413.714844 603.132812 403.613281 598.789062 406.417969 592.28125 Z M 406.417969 592.28125 "/>
<path style=" stroke:none;fill-rule:nonzero;fill:rgb(0%,58.039216%,100%);fill-opacity:1;" d="M 221.402344 680.515625 L 220.152344 680.976562 C 219.585938 681.230469 218.996094 681.324219 218.386719 681.269531 C 217.757812 681.320312 217.15625 681.203125 216.570312 680.929688 C 215.972656 680.699219 215.472656 680.335938 215.078125 679.847656 C 214.621094 679.445312 214.285156 678.949219 214.074219 678.363281 L 213.777344 677.203125 C 213.679688 676.367188 213.796875 675.558594 214.125 674.78125 L 214.769531 673.707031 C 215.285156 673.066406 215.921875 672.59375 216.6875 672.289062 L 217.941406 671.824219 C 218.507812 671.574219 219.09375 671.480469 219.703125 671.535156 C 220.332031 671.484375 220.9375 671.601562 221.519531 671.875 C 222.117188 672.105469 222.617188 672.46875 223.015625 672.957031 C 223.46875 673.359375 223.804688 673.855469 224.015625 674.441406 L 224.3125 675.601562 C 224.410156 676.4375 224.296875 677.246094 223.964844 678.019531 L 223.324219 679.097656 C 222.804688 679.734375 222.167969 680.207031 221.402344 680.515625 Z M 221.402344 680.515625 "/>
<path style=" stroke:none;fill-rule:nonzero;fill:rgb(0%,58.039216%,100%);fill-opacity:1;" d="M 171.976562 426.214844 L 172.441406 427.46875 C 172.796875 428.269531 172.933594 429.101562 172.851562 429.957031 C 172.917969 430.84375 172.757812 431.695312 172.367188 432.519531 C 172.039062 433.367188 171.53125 434.070312 170.839844 434.632812 C 170.273438 435.28125 169.574219 435.746094 168.746094 436.042969 L 167.113281 436.460938 C 165.929688 436.605469 164.792969 436.441406 163.699219 435.972656 L 162.183594 435.066406 C 161.28125 434.335938 160.609375 433.433594 160.179688 432.355469 L 159.71875 431.101562 C 159.363281 430.300781 159.226562 429.46875 159.308594 428.613281 C 159.242188 427.726562 159.402344 426.875 159.792969 426.050781 C 160.121094 425.203125 160.625 424.5 161.320312 423.9375 C 161.886719 423.289062 162.582031 422.824219 163.414062 422.527344 L 165.046875 422.109375 C 166.226562 421.964844 167.367188 422.128906 168.460938 422.597656 L 169.976562 423.503906 C 170.878906 424.234375 171.550781 425.136719 171.976562 426.214844 Z M 171.976562 426.214844 "/>
<path style=" stroke:none;fill-rule:nonzero;fill:rgb(0%,58.039216%,100%);fill-opacity:1;" d="M 253.296875 178.105469 C 255.953125 171.929688 265.550781 176.046875 262.890625 182.230469 C 260.234375 188.40625 250.636719 184.289062 253.296875 178.105469 Z M 253.296875 178.105469 "/>
<path style=" stroke:none;fill-rule:nonzero;fill:rgb(0%,58.039216%,100%);fill-opacity:1;" d="M 654.195312 272.324219 C 657.128906 265.503906 667.738281 270.054688 664.796875 276.886719 C 661.863281 283.710938 651.253906 279.160156 654.195312 272.324219 Z M 654.195312 272.324219 "/>
<path style=" stroke:none;fill-rule:nonzero;fill:rgb(0%,58.039216%,100%);fill-opacity:1;" d="M 92.71875 279.328125 L 91.464844 279.792969 C 90.964844 280.011719 90.445312 280.097656 89.910156 280.050781 C 89.355469 280.09375 88.820312 279.996094 88.308594 279.746094 C 87.78125 279.542969 87.34375 279.226562 86.992188 278.789062 C 86.589844 278.433594 86.292969 278 86.113281 277.480469 L 85.847656 276.460938 C 85.761719 275.722656 85.859375 275.007812 86.15625 274.328125 L 86.722656 273.375 C 87.179688 272.808594 87.746094 272.390625 88.414062 272.121094 L 89.667969 271.660156 C 90.167969 271.441406 90.691406 271.351562 91.222656 271.402344 C 91.78125 271.359375 92.3125 271.457031 92.824219 271.703125 C 93.351562 271.90625 93.792969 272.226562 94.144531 272.660156 C 94.542969 273.019531 94.839844 273.453125 95.023438 273.96875 L 95.285156 274.992188 C 95.375 275.730469 95.277344 276.441406 94.980469 277.125 L 94.414062 278.074219 C 93.957031 278.640625 93.390625 279.058594 92.71875 279.328125 Z M 92.71875 279.328125 "/>
<path style=" stroke:none;fill-rule:nonzero;fill:rgb(0%,58.039216%,100%);fill-opacity:1;" d="M -1.546875 400.121094 C 0.691406 394.917969 8.769531 398.386719 6.535156 403.59375 C 4.296875 408.792969 -3.785156 405.324219 -1.546875 400.121094 Z M -1.546875 400.121094 "/>
<path style=" stroke:none;fill-rule:nonzero;fill:rgb(0%,58.039216%,100%);fill-opacity:1;" d="M 98.234375 446.390625 C 101.167969 439.566406 111.777344 444.121094 108.835938 450.953125 C 105.902344 457.773438 95.292969 453.222656 98.234375 446.390625 Z M 98.234375 446.390625 "/>
<path style=" stroke:none;fill-rule:nonzero;fill:rgb(0%,58.039216%,100%);fill-opacity:1;" d="M 153.898438 263.097656 C 156.414062 257.246094 165.507812 261.148438 162.984375 267.003906 C 160.46875 272.855469 151.375 268.949219 153.898438 263.097656 Z M 153.898438 263.097656 "/>
<path style=" stroke:none;fill-rule:nonzero;fill:rgb(0%,58.039216%,100%);fill-opacity:1;" d="M 321.300781 252.273438 C 324.234375 245.449219 334.84375 250 331.902344 256.835938 C 328.96875 263.65625 318.359375 259.105469 321.300781 252.273438 Z M 321.300781 252.273438 "/>
<path style=" stroke:none;fill-rule:nonzero;fill:rgb(0%,58.039216%,100%);fill-opacity:1;" d="M 391.382812 246.28125 L 391.84375 247.535156 C 392.109375 248.136719 392.214844 248.757812 392.152344 249.402344 C 392.203125 250.066406 392.082031 250.707031 391.789062 251.320312 C 391.542969 251.957031 391.164062 252.488281 390.648438 252.902344 C 390.222656 253.386719 389.695312 253.738281 389.078125 253.964844 L 387.855469 254.277344 C 386.96875 254.382812 386.117188 254.261719 385.292969 253.910156 L 384.15625 253.230469 C 383.476562 252.679688 382.976562 252.003906 382.652344 251.195312 L 382.191406 249.941406 C 381.929688 249.335938 381.824219 248.714844 381.882812 248.070312 C 381.835938 247.40625 381.957031 246.769531 382.246094 246.152344 C 382.496094 245.515625 382.875 244.988281 383.390625 244.570312 C 383.8125 244.085938 384.339844 243.734375 384.957031 243.507812 L 386.183594 243.195312 C 387.066406 243.089844 387.921875 243.210938 388.746094 243.5625 L 389.882812 244.246094 C 390.558594 244.796875 391.058594 245.472656 391.382812 246.28125 Z M 391.382812 246.28125 "/>
<path style=" stroke:none;fill-rule:nonzero;fill:rgb(0%,58.039216%,100%);fill-opacity:1;" d="M 379.90625 207.613281 C 382.140625 202.414062 390.222656 205.882812 387.984375 211.085938 C 385.75 216.289062 377.667969 212.820312 379.90625 207.613281 Z M 379.90625 207.613281 "/>
<path style=" stroke:none;fill-rule:nonzero;fill:rgb(0%,58.039216%,100%);fill-opacity:1;" d="M 904.746094 505.945312 L 906.460938 506.738281 C 907.765625 507.34375 908.859375 508.410156 909.398438 509.757812 C 909.695312 510.425781 909.808594 511.121094 909.742188 511.828125 C 909.796875 512.566406 909.667969 513.28125 909.34375 513.960938 C 908.722656 515.242188 907.710938 516.414062 906.324219 516.898438 C 904.9375 517.382812 903.453125 517.457031 902.117188 516.84375 L 900.402344 516.050781 C 899.101562 515.445312 898.007812 514.378906 897.46875 513.03125 C 897.171875 512.363281 897.054688 511.667969 897.121094 510.960938 C 897.066406 510.222656 897.199219 509.507812 897.523438 508.828125 C 898.144531 507.546875 899.15625 506.375 900.542969 505.890625 C 901.898438 505.417969 903.410156 505.332031 904.746094 505.945312 Z M 904.746094 505.945312 "/>
<path style=" stroke:none;fill-rule:nonzero;fill:rgb(0%,58.039216%,100%);fill-opacity:1;" d="M 911.441406 593.277344 C 914.242188 586.777344 924.34375 591.109375 921.539062 597.617188 C 918.742188 604.117188 908.640625 599.785156 911.441406 593.277344 Z M 911.441406 593.277344 "/>
<path style=" stroke:none;fill-rule:nonzero;fill:rgb(0%,58.039216%,100%);fill-opacity:1;" d="M 898.835938 626.933594 C 901.210938 621.410156 909.804688 625.09375 907.425781 630.628906 C 905.050781 636.152344 896.457031 632.472656 898.835938 626.933594 Z M 898.835938 626.933594 "/>
<path style=" stroke:none;fill-rule:nonzero;fill:rgb(0%,58.039216%,100%);fill-opacity:1;" d="M 880.882812 665.398438 C 882.839844 660.851562 889.914062 663.882812 887.953125 668.4375 C 885.996094 672.984375 878.921875 669.957031 880.882812 665.398438 Z M 880.882812 665.398438 "/>
<path style=" stroke:none;fill-rule:nonzero;fill:rgb(0%,58.039216%,100%);fill-opacity:1;" d="M 985.171875 255.9375 L 985.632812 257.191406 C 985.914062 257.828125 986.023438 258.484375 985.960938 259.160156 C 986.019531 259.863281 985.890625 260.535156 985.578125 261.1875 C 985.320312 261.859375 984.917969 262.414062 984.367188 262.859375 C 983.917969 263.371094 983.367188 263.746094 982.714844 263.976562 L 981.421875 264.304688 C 980.488281 264.414062 979.585938 264.289062 978.71875 263.921875 L 977.511719 263.199219 C 976.800781 262.625 976.269531 261.910156 975.925781 261.054688 L 975.464844 259.804688 C 975.183594 259.164062 975.074219 258.511719 975.132812 257.835938 C 975.078125 257.132812 975.203125 256.460938 975.519531 255.808594 C 975.777344 255.136719 976.175781 254.582031 976.726562 254.136719 C 977.179688 253.625 977.726562 253.25 978.382812 253.019531 L 979.675781 252.691406 C 980.609375 252.578125 981.511719 252.707031 982.378906 253.074219 L 983.582031 253.792969 C 984.296875 254.371094 984.824219 255.085938 985.171875 255.9375 Z M 985.171875 255.9375 "/>
<path style=" stroke:none;fill-rule:nonzero;fill:rgb(0%,58.039216%,100%);fill-opacity:1;" d="M 970.261719 224.21875 C 972.5 219.019531 980.582031 222.488281 978.34375 227.695312 C 976.105469 232.894531 968.023438 229.425781 970.261719 224.21875 Z M 970.261719 224.21875 "/>
<path style=" stroke:none;fill-rule:nonzero;fill:rgb(0%,58.039216%,100%);fill-opacity:1;" d="M 1172.828125 514.054688 L 1173.292969 515.308594 C 1173.597656 516.011719 1173.71875 516.738281 1173.65625 517.484375 C 1173.714844 518.261719 1173.570312 519.007812 1173.230469 519.722656 C 1172.945312 520.464844 1172.5 521.082031 1171.894531 521.570312 C 1171.402344 522.136719 1170.789062 522.546875 1170.066406 522.808594 L 1168.636719 523.175781 C 1167.601562 523.300781 1166.605469 523.160156 1165.648438 522.746094 L 1164.320312 521.949219 C 1163.527344 521.3125 1162.945312 520.519531 1162.566406 519.578125 L 1162.105469 518.328125 C 1161.796875 517.621094 1161.675781 516.898438 1161.742188 516.148438 C 1161.679688 515.375 1161.824219 514.625 1162.164062 513.914062 C 1162.449219 513.171875 1162.894531 512.554688 1163.5 512.066406 C 1163.996094 511.5 1164.605469 511.085938 1165.332031 510.828125 L 1166.761719 510.460938 C 1167.792969 510.332031 1168.789062 510.476562 1169.746094 510.890625 L 1171.074219 511.6875 C 1171.867188 512.324219 1172.449219 513.113281 1172.828125 514.054688 Z M 1172.828125 514.054688 "/>
<path style=" stroke:none;fill-rule:nonzero;fill:rgb(0%,58.039216%,100%);fill-opacity:1;" d="M 1246.761719 538.121094 L 1247.222656 539.375 C 1247.519531 540.046875 1247.636719 540.738281 1247.570312 541.449219 C 1247.625 542.183594 1247.492188 542.898438 1247.167969 543.582031 C 1246.894531 544.289062 1246.46875 544.871094 1245.898438 545.339844 C 1245.425781 545.878906 1244.84375 546.269531 1244.15625 546.515625 L 1242.792969 546.867188 C 1241.808594 546.984375 1240.859375 546.851562 1239.945312 546.460938 L 1238.679688 545.703125 C 1237.929688 545.09375 1237.371094 544.34375 1237.011719 543.445312 L 1236.546875 542.191406 C 1236.25 541.519531 1236.136719 540.828125 1236.203125 540.117188 C 1236.148438 539.382812 1236.277344 538.667969 1236.601562 537.984375 C 1236.878906 537.277344 1237.300781 536.691406 1237.871094 536.226562 C 1238.34375 535.6875 1238.929688 535.296875 1239.617188 535.050781 L 1240.980469 534.695312 C 1241.960938 534.582031 1242.914062 534.714844 1243.828125 535.105469 L 1245.089844 535.863281 C 1245.84375 536.472656 1246.398438 537.21875 1246.761719 538.121094 Z M 1246.761719 538.121094 "/>
<path style=" stroke:none;fill-rule:nonzero;fill:rgb(0%,58.039216%,100%);fill-opacity:1;" d="M 842.390625 368.796875 C 843.929688 365.222656 849.488281 367.609375 847.945312 371.1875 C 846.40625 374.761719 840.847656 372.375 842.390625 368.796875 Z M 842.390625 368.796875 "/>
<path style=" stroke:none;fill-rule:nonzero;fill:rgb(0%,58.039216%,100%);fill-opacity:1;" d="M 828.933594 344.894531 C 830.753906 340.671875 837.316406 343.488281 835.5 347.71875 C 833.679688 351.941406 827.113281 349.128906 828.933594 344.894531 Z M 828.933594 344.894531 "/>
<path style=" stroke:none;fill-rule:nonzero;fill:rgb(0%,58.039216%,100%);fill-opacity:1;" d="M 807.546875 363.105469 C 810.0625 357.257812 819.15625 361.160156 816.632812 367.015625 C 814.113281 372.863281 805.023438 368.960938 807.546875 363.105469 Z M 807.546875 363.105469 "/>
<path style=" stroke:none;fill-rule:nonzero;fill:rgb(0%,58.039216%,100%);fill-opacity:1;" d="M 783.105469 240.46875 C 785.199219 235.59375 792.78125 238.847656 790.679688 243.730469 C 788.585938 248.605469 781.003906 245.351562 783.105469 240.46875 Z M 783.105469 240.46875 "/>
<path style=" stroke:none;fill-rule:nonzero;fill:rgb(0%,58.039216%,100%);fill-opacity:1;" d="M 799.808594 279.429688 C 802.183594 273.902344 810.777344 277.585938 808.398438 283.121094 C 806.023438 288.648438 797.429688 284.964844 799.808594 279.429688 Z M 799.808594 279.429688 "/>
<path style=" stroke:none;fill-rule:nonzero;fill:rgb(0%,58.039216%,100%);fill-opacity:1;" d="M 305.300781 334.960938 L 306.136719 334.652344 C 306.507812 334.488281 306.886719 334.429688 307.28125 334.460938 C 307.6875 334.429688 308.078125 334.503906 308.453125 334.679688 C 308.84375 334.828125 309.160156 335.066406 309.417969 335.378906 C 309.714844 335.636719 309.929688 335.957031 310.070312 336.335938 L 310.261719 337.082031 C 310.328125 337.621094 310.25 338.144531 310.035156 338.648438 L 309.617188 339.347656 C 309.28125 339.761719 308.871094 340.066406 308.375 340.265625 L 307.539062 340.574219 C 307.171875 340.738281 306.792969 340.800781 306.394531 340.765625 C 305.988281 340.800781 305.597656 340.722656 305.226562 340.546875 C 304.835938 340.398438 304.515625 340.160156 304.257812 339.847656 C 303.960938 339.589844 303.746094 339.269531 303.609375 338.890625 L 303.417969 338.144531 C 303.351562 337.605469 303.429688 337.082031 303.640625 336.578125 L 304.058594 335.878906 C 304.394531 335.46875 304.808594 335.160156 305.300781 334.960938 Z M 305.300781 334.960938 "/>
<path style=" stroke:none;fill-rule:nonzero;fill:rgb(0%,58.039216%,100%);fill-opacity:1;" d="M 492.246094 319.925781 C 493.503906 317 498.050781 318.953125 496.792969 321.882812 C 495.535156 324.808594 490.988281 322.855469 492.246094 319.925781 Z M 492.246094 319.925781 "/>
<path style=" stroke:none;fill-rule:nonzero;fill:rgb(0%,58.039216%,100%);fill-opacity:1;" d="M 367.589844 362.589844 L 367.898438 363.425781 C 368.136719 363.960938 368.230469 364.515625 368.175781 365.085938 C 368.21875 365.675781 368.113281 366.246094 367.851562 366.789062 C 367.628906 367.355469 367.292969 367.824219 366.832031 368.199219 C 366.453125 368.625 365.992188 368.941406 365.4375 369.136719 L 364.347656 369.417969 C 363.5625 369.511719 362.804688 369.402344 362.070312 369.09375 L 361.0625 368.488281 C 360.460938 368.003906 360.015625 367.398438 359.726562 366.679688 L 359.417969 365.84375 C 359.179688 365.3125 359.085938 364.757812 359.140625 364.183594 C 359.097656 363.597656 359.203125 363.023438 359.464844 362.480469 C 359.6875 361.914062 360.023438 361.445312 360.484375 361.074219 C 360.863281 360.644531 361.324219 360.332031 361.878906 360.132812 L 362.96875 359.851562 C 363.753906 359.757812 364.511719 359.871094 365.242188 360.175781 L 366.253906 360.78125 C 366.855469 361.265625 367.300781 361.871094 367.589844 362.589844 Z M 367.589844 362.589844 "/>
<path style=" stroke:none;fill-rule:nonzero;fill:rgb(0%,58.039216%,100%);fill-opacity:1;" d="M 360.378906 305.566406 L 360.6875 306.402344 C 360.851562 306.769531 360.914062 307.152344 360.878906 307.546875 C 360.914062 307.953125 360.835938 308.34375 360.660156 308.71875 C 360.511719 309.109375 360.273438 309.425781 359.960938 309.683594 C 359.703125 309.980469 359.382812 310.195312 359.003906 310.332031 L 358.257812 310.527344 C 357.71875 310.59375 357.195312 310.515625 356.691406 310.300781 L 355.992188 309.882812 C 355.578125 309.546875 355.273438 309.136719 355.074219 308.640625 L 354.765625 307.804688 C 354.601562 307.4375 354.542969 307.058594 354.574219 306.660156 C 354.539062 306.253906 354.617188 305.863281 354.792969 305.492188 C 354.941406 305.101562 355.179688 304.78125 355.492188 304.523438 C 355.75 304.226562 356.070312 304.011719 356.449219 303.875 L 357.195312 303.683594 C 357.734375 303.617188 358.257812 303.691406 358.761719 303.90625 L 359.460938 304.324219 C 359.875 304.660156 360.179688 305.074219 360.378906 305.566406 Z M 360.378906 305.566406 "/>
<path style=" stroke:none;fill-rule:nonzero;fill:rgb(0%,58.039216%,100%);fill-opacity:1;" d="M 1124.386719 460.925781 C 1125.367188 458.648438 1128.902344 460.164062 1127.921875 462.449219 C 1126.945312 464.722656 1123.410156 463.207031 1124.386719 460.925781 Z M 1124.386719 460.925781 "/>
<path style=" stroke:none;fill-rule:nonzero;fill:rgb(0%,58.039216%,100%);fill-opacity:1;" d="M 1076.121094 471.1875 C 1077.660156 467.613281 1083.21875 470 1081.675781 473.578125 C 1080.136719 477.152344 1074.578125 474.765625 1076.121094 471.1875 Z M 1076.121094 471.1875 "/>
<path style=" stroke:none;fill-rule:nonzero;fill:rgb(0%,58.039216%,100%);fill-opacity:1;" d="M 947.460938 382.089844 L 947.769531 382.925781 C 948.019531 383.492188 948.113281 384.078125 948.058594 384.6875 C 948.109375 385.316406 947.992188 385.921875 947.71875 386.503906 C 947.488281 387.101562 947.125 387.601562 946.636719 388 C 946.234375 388.453125 945.738281 388.789062 945.152344 389 L 943.992188 389.296875 C 943.15625 389.394531 942.347656 389.277344 941.574219 388.949219 L 940.496094 388.304688 C 939.859375 387.789062 939.386719 387.152344 939.078125 386.386719 L 938.769531 385.550781 C 938.515625 384.984375 938.421875 384.398438 938.476562 383.789062 C 938.429688 383.160156 938.542969 382.554688 938.820312 381.972656 C 939.050781 381.375 939.414062 380.875 939.902344 380.476562 C 940.304688 380.023438 940.796875 379.6875 941.386719 379.476562 L 942.546875 379.179688 C 943.382812 379.082031 944.1875 379.199219 944.964844 379.527344 L 946.042969 380.171875 C 946.679688 380.6875 947.152344 381.324219 947.460938 382.089844 Z M 947.460938 382.089844 "/>
<path style=" stroke:none;fill-rule:nonzero;fill:rgb(0%,58.039216%,100%);fill-opacity:1;" d="M 982.582031 635.847656 L 981.957031 636.078125 C 981.554688 636.253906 981.136719 636.324219 980.710938 636.285156 C 980.269531 636.320312 979.84375 636.242188 979.433594 636.042969 C 979.007812 635.878906 978.65625 635.625 978.375 635.28125 C 978.050781 634.992188 977.816406 634.648438 977.671875 634.234375 L 977.464844 633.417969 C 977.390625 632.828125 977.476562 632.257812 977.707031 631.707031 L 978.164062 630.949219 C 978.523438 630.496094 978.976562 630.160156 979.515625 629.949219 L 980.140625 629.714844 C 980.542969 629.539062 980.960938 629.46875 981.382812 629.507812 C 981.828125 629.476562 982.253906 629.550781 982.664062 629.75 C 983.085938 629.914062 983.441406 630.167969 983.71875 630.515625 C 984.042969 630.800781 984.28125 631.144531 984.421875 631.558594 L 984.632812 632.378906 C 984.703125 632.964844 984.621094 633.539062 984.390625 634.085938 L 983.933594 634.84375 C 983.570312 635.296875 983.121094 635.632812 982.582031 635.847656 Z M 982.582031 635.847656 "/>
<path style=" stroke:none;fill-rule:nonzero;fill:rgb(0%,58.039216%,100%);fill-opacity:1;" d="M 106.457031 174.46875 C 107.574219 171.871094 111.617188 173.605469 110.496094 176.207031 C 109.382812 178.808594 105.335938 177.070312 106.457031 174.46875 Z M 106.457031 174.46875 "/>
<path style=" stroke:none;fill-rule:nonzero;fill:rgb(0%,58.039216%,100%);fill-opacity:1;" d="M 973.433594 255.75 C 975.480469 250.996094 981.621094 248.242188 986.433594 250.574219 C 991.265625 252.914062 993.808594 258.476562 991.613281 263.574219 C 989.570312 268.328125 983.429688 271.082031 978.613281 268.753906 C 973.78125 266.410156 971.242188 260.847656 973.433594 255.75 Z M 973.433594 255.75 "/>
<path style=" stroke:none;fill-rule:nonzero;fill:rgb(0%,58.039216%,100%);fill-opacity:1;" d="M 935.5 380.21875 C 937.429688 375.730469 943.226562 373.128906 947.773438 375.328125 C 952.335938 377.539062 954.734375 382.792969 952.667969 387.601562 C 950.738281 392.09375 944.9375 394.695312 940.390625 392.496094 C 935.828125 390.285156 933.429688 385.03125 935.5 380.21875 Z M 935.5 380.21875 "/>
<path style=" stroke:none;fill-rule:nonzero;fill:rgb(0%,58.039216%,100%);fill-opacity:1;" d="M 837.984375 367.34375 C 839.859375 362.984375 845.488281 360.460938 849.902344 362.597656 C 854.316406 364.730469 856.65625 369.839844 854.652344 374.515625 C 852.777344 378.871094 847.148438 381.394531 842.734375 379.261719 C 838.308594 377.121094 835.976562 372.019531 837.984375 367.34375 Z M 837.984375 367.34375 "/>
<path style=" stroke:none;fill-rule:nonzero;fill:rgb(0%,58.039216%,100%);fill-opacity:1;" d="M 825.421875 342.394531 C 827.351562 337.902344 833.152344 335.300781 837.695312 337.5 C 842.261719 339.710938 844.65625 344.964844 842.589844 349.777344 C 840.660156 354.265625 834.859375 356.867188 830.3125 354.667969 C 825.75 352.457031 823.355469 347.203125 825.421875 342.394531 Z M 825.421875 342.394531 "/>
<path style=" stroke:none;fill-rule:nonzero;fill:rgb(0%,58.039216%,100%);fill-opacity:1;" d="M 645.671875 268.472656 C 647.773438 263.585938 654.089844 260.753906 659.039062 263.152344 C 664 265.554688 666.613281 271.277344 664.359375 276.515625 C 662.257812 281.402344 655.941406 284.234375 650.996094 281.835938 C 646.03125 279.433594 643.421875 273.710938 645.671875 268.472656 Z M 645.671875 268.472656 "/>
<path style=" stroke:none;fill-rule:nonzero;fill:rgb(0%,58.039216%,100%);fill-opacity:1;" d="M 777.085938 236.65625 C 779.246094 231.636719 785.726562 228.726562 790.804688 231.191406 C 795.902344 233.660156 798.585938 239.535156 796.269531 244.910156 C 794.109375 249.929688 787.628906 252.839844 782.550781 250.375 C 777.453125 247.90625 774.769531 242.03125 777.085938 236.65625 Z M 777.085938 236.65625 "/>
<path style=" stroke:none;fill-rule:nonzero;fill:rgb(0%,58.039216%,100%);fill-opacity:1;" d="M 795.570312 277.140625 C 797.84375 271.859375 804.667969 268.796875 810.019531 271.386719 C 815.382812 273.984375 818.210938 280.171875 815.773438 285.832031 C 813.503906 291.117188 806.675781 294.175781 801.328125 291.589844 C 795.960938 288.988281 793.136719 282.804688 795.570312 277.140625 Z M 795.570312 277.140625 "/>
<path style=" stroke:none;fill-rule:nonzero;fill:rgb(0%,58.039216%,100%);fill-opacity:1;" d="M 298.632812 333.910156 C 300.625 329.289062 306.59375 326.609375 311.273438 328.875 C 315.96875 331.152344 318.441406 336.5625 316.308594 341.515625 C 314.316406 346.136719 308.347656 348.8125 303.667969 346.550781 C 298.992188 344.285156 296.5 338.863281 298.632812 333.910156 Z M 298.632812 333.910156 "/>
<path style=" stroke:none;fill-rule:nonzero;fill:rgb(0%,58.039216%,100%);fill-opacity:1;" d="M 365.734375 373.496094 L 364.816406 373.640625 C 363.414062 373.863281 362.0625 373.734375 360.757812 373.242188 C 359.363281 372.980469 358.109375 372.375 357.003906 371.425781 C 355.882812 370.589844 355.042969 369.550781 354.480469 368.300781 C 353.726562 367.175781 353.289062 365.921875 353.167969 364.546875 L 353.183594 361.835938 C 353.457031 359.941406 354.1875 358.242188 355.375 356.734375 L 357.328125 354.859375 C 358.800781 353.785156 360.445312 353.136719 362.253906 352.898438 L 363.171875 352.753906 C 364.574219 352.53125 365.925781 352.664062 367.230469 353.152344 C 368.625 353.414062 369.878906 354.019531 370.984375 354.972656 C 372.105469 355.808594 372.945312 356.84375 373.507812 358.09375 C 374.257812 359.21875 374.699219 360.472656 374.820312 361.847656 L 374.804688 364.558594 C 374.527344 366.453125 373.796875 368.152344 372.609375 369.660156 L 370.660156 371.535156 C 369.1875 372.613281 367.542969 373.261719 365.734375 373.496094 Z M 365.734375 373.496094 "/>
<path style=" stroke:none;fill-rule:nonzero;fill:rgb(0%,58.039216%,100%);fill-opacity:1;" d="M 376.410156 204.460938 C 378.226562 200.234375 383.6875 197.789062 387.964844 199.863281 C 392.257812 201.941406 394.515625 206.886719 392.566406 211.417969 C 390.746094 215.644531 385.285156 218.089844 381.011719 216.019531 C 376.714844 213.941406 374.457031 208.992188 376.410156 204.460938 Z M 376.410156 204.460938 "/>
<path style=" stroke:none;fill-rule:nonzero;fill:rgb(0%,58.039216%,100%);fill-opacity:1;" d="M 250.09375 175.40625 C 251.851562 171.308594 257.140625 168.941406 261.285156 170.945312 C 265.449219 172.957031 267.636719 177.75 265.746094 182.136719 C 263.984375 186.234375 258.695312 188.601562 254.550781 186.597656 C 250.390625 184.585938 248.203125 179.792969 250.09375 175.40625 Z M 250.09375 175.40625 "/>
<path style=" stroke:none;fill-rule:nonzero;fill:rgb(0%,58.039216%,100%);fill-opacity:1;" d="M 152.347656 260.84375 C 154.167969 256.613281 159.625 254.167969 163.902344 256.242188 C 168.195312 258.320312 170.457031 263.265625 168.503906 267.796875 C 166.683594 272.023438 161.226562 274.46875 156.949219 272.398438 C 152.65625 270.320312 150.394531 265.371094 152.347656 260.84375 Z M 152.347656 260.84375 "/>
<path style=" stroke:none;fill-rule:nonzero;fill:rgb(0%,58.039216%,100%);fill-opacity:1;" d="M 83.945312 272.199219 C 87.722656 263.425781 101.359375 269.28125 97.578125 278.066406 C 93.800781 286.839844 80.164062 280.984375 83.945312 272.199219 Z M 83.945312 272.199219 "/>
<path style=" stroke:none;fill-rule:nonzero;fill:rgb(0%,58.039216%,100%);fill-opacity:1;" d="M 285.84375 389.03125 C 287.484375 385.210938 292.132812 383.359375 295.953125 385.003906 C 299.78125 386.652344 301.628906 391.28125 299.980469 395.113281 C 298.335938 398.933594 293.691406 400.785156 289.871094 399.140625 C 286.039062 397.492188 284.191406 392.863281 285.84375 389.03125 Z M 285.84375 389.03125 "/>
<path style=" stroke:none;fill-rule:nonzero;fill:rgb(0%,58.039216%,100%);fill-opacity:1;" d="M 248.226562 406.726562 C 251.578125 398.925781 263.703125 404.132812 260.347656 411.945312 C 256.992188 419.746094 244.867188 414.539062 248.226562 406.726562 Z M 248.226562 406.726562 "/>
<path style=" stroke:none;fill-rule:nonzero;fill:rgb(0%,58.039216%,100%);fill-opacity:1;" d="M 1155.914062 450 C 1157.617188 446.042969 1162.429688 444.125 1166.386719 445.828125 C 1170.355469 447.539062 1172.269531 452.332031 1170.558594 456.300781 C 1168.855469 460.257812 1164.046875 462.179688 1160.085938 460.472656 C 1156.128906 458.769531 1154.207031 453.96875 1155.914062 450 Z M 1155.914062 450 "/>
<path style=" stroke:none;fill-rule:nonzero;fill:rgb(0%,58.039216%,100%);fill-opacity:1;" d="M 1128.753906 716.480469 C 1130.628906 712.121094 1136.257812 709.597656 1140.671875 711.730469 C 1145.097656 713.875 1147.425781 718.976562 1145.421875 723.648438 C 1143.546875 728.007812 1137.917969 730.53125 1133.503906 728.398438 C 1129.078125 726.253906 1126.746094 721.152344 1128.753906 716.480469 Z M 1128.753906 716.480469 "/>
<path style=" stroke:none;fill-rule:nonzero;fill:rgb(0%,58.039216%,100%);fill-opacity:1;" d="M 979.640625 623.066406 L 980.558594 622.921875 C 981.851562 622.714844 983.097656 622.835938 984.296875 623.285156 C 985.582031 623.527344 986.738281 624.085938 987.753906 624.960938 C 988.789062 625.730469 989.5625 626.6875 990.082031 627.835938 C 990.773438 628.875 991.179688 630.023438 991.289062 631.292969 L 991.273438 633.789062 C 991.019531 635.539062 990.34375 637.105469 989.25 638.492188 L 987.453125 640.214844 C 986.09375 641.207031 984.582031 641.8125 982.917969 642.023438 L 982 642.167969 C 980.707031 642.375 979.460938 642.257812 978.261719 641.804688 C 976.976562 641.5625 975.820312 641.003906 974.804688 640.128906 C 973.769531 639.359375 972.996094 638.402344 972.476562 637.253906 C 971.785156 636.214844 971.378906 635.066406 971.269531 633.796875 L 971.285156 631.300781 C 971.539062 629.550781 972.214844 627.984375 973.308594 626.601562 L 975.105469 624.875 C 976.464844 623.882812 977.976562 623.28125 979.640625 623.066406 Z M 979.640625 623.066406 "/>
<path style=" stroke:none;fill-rule:nonzero;fill:rgb(0%,58.039216%,100%);fill-opacity:1;" d="M 1005.96875 435.632812 L 1006.109375 436.550781 C 1006.320312 437.839844 1006.199219 439.089844 1005.746094 440.289062 C 1005.503906 441.574219 1004.945312 442.730469 1004.070312 443.746094 C 1003.300781 444.777344 1002.34375 445.554688 1001.195312 446.070312 C 1000.15625 446.761719 999.007812 447.171875 997.738281 447.28125 L 995.242188 447.265625 C 993.492188 447.011719 991.925781 446.335938 990.542969 445.242188 L 988.816406 443.441406 C 987.828125 442.085938 987.222656 440.574219 987.007812 438.90625 L 986.863281 437.988281 C 986.65625 436.699219 986.777344 435.449219 987.226562 434.253906 C 987.46875 432.964844 988.03125 431.8125 988.902344 430.792969 C 989.671875 429.761719 990.628906 428.984375 991.777344 428.46875 C 992.816406 427.777344 993.964844 427.371094 995.238281 427.257812 L 997.730469 427.277344 C 999.480469 427.527344 1001.046875 428.207031 1002.433594 429.300781 L 1004.160156 431.097656 C 1005.148438 432.453125 1005.753906 433.964844 1005.96875 435.632812 Z M 1005.96875 435.632812 "/>
</g>
</svg>
